<svg xmlns="http://www.w3.org/2000/svg" xmlns:xlink="http://www.w3.org/1999/xlink" width="266.921" height="11.326" viewBox="0 0 266.921 11.326">
  <defs>
    <clipPath id="clip-path">
      <rect id="Rectangle_881" data-name="Rectangle 881" width="11.326" height="266.921" fill="#dfa357"/>
    </clipPath>
  </defs>
  <g id="Group_95" data-name="Group 95" transform="translate(266.921) rotate(90)">
    <g id="Group_68" data-name="Group 68" transform="translate(0 0)" clip-path="url(#clip-path)">
      <path id="Path_157" data-name="Path 157" d="M9.1,73.239a3.758,3.758,0,0,1-2.42,3.488,3.722,3.722,0,1,1-.649-7.154A3.769,3.769,0,0,1,9.1,73.239a.839.839,0,0,0,1.676,0,5.477,5.477,0,0,0-3.538-5.063,5.414,5.414,0,0,0-5.988,1.6,5.39,5.39,0,0,0,5.165,8.755,5.451,5.451,0,0,0,4.361-5.293.839.839,0,0,0-1.676,0" transform="translate(0 188.302)" fill="#dfa357"/>
      <path id="Path_158" data-name="Path 158" d="M9.1,5.392A3.758,3.758,0,0,1,6.679,8.88a3.72,3.72,0,0,1-4.489-5.4,3.744,3.744,0,0,1,3.84-1.756A3.769,3.769,0,0,1,9.1,5.392a.839.839,0,0,0,1.676,0A5.477,5.477,0,0,0,7.238.329,5.414,5.414,0,0,0,1.25,1.93,5.454,5.454,0,0,0,.744,8.148a5.463,5.463,0,0,0,5.671,2.537,5.451,5.451,0,0,0,4.361-5.293.839.839,0,0,0-1.676,0" transform="translate(0 -0.001)" fill="#dfa357"/>
      <path id="Path_159" data-name="Path 159" d="M2.89,249.85V13.318c0-3.194.057-6.4,0-9.59,0-.14,0-.279,0-.419a.839.839,0,0,0-1.676,0V239.842c0,3.194-.057,6.4,0,9.59,0,.14,0,.279,0,.419a.839.839,0,0,0,1.676,0" transform="translate(3.298 6.941)" fill="#dfa357"/>
    </g>
  </g>
</svg>
