<svg xmlns="http://www.w3.org/2000/svg" xmlns:xlink="http://www.w3.org/1999/xlink" width="435.097" height="18.462" viewBox="0 0 435.097 18.462">
  <defs>
    <clipPath id="clip-path">
      <rect id="Rectangle_866" data-name="Rectangle 866" width="18.462" height="435.097" fill="#eae8d6"/>
    </clipPath>
  </defs>
  <g id="Group_42" data-name="Group 42" transform="translate(435.097) rotate(90)">
    <g id="Group_41" data-name="Group 41" transform="translate(0 0)" clip-path="url(#clip-path)">
      <path id="Path_121" data-name="Path 121" d="M14.832,76.636a6.125,6.125,0,0,1-3.945,5.686A6.066,6.066,0,1,1,9.828,70.66a6.143,6.143,0,0,1,5,5.976,1.367,1.367,0,0,0,2.732,0A8.928,8.928,0,0,0,11.8,68.383a8.826,8.826,0,0,0-9.76,2.609,8.786,8.786,0,0,0,8.419,14.271,8.885,8.885,0,0,0,7.108-8.628,1.367,1.367,0,0,0-2.732,0" transform="translate(0 349.691)" fill="#eae8d6"/>
      <path id="Path_122" data-name="Path 122" d="M14.832,8.789a6.125,6.125,0,0,1-3.945,5.686,6.064,6.064,0,0,1-7.317-8.8A6.1,6.1,0,0,1,9.828,2.813a6.143,6.143,0,0,1,5,5.976,1.367,1.367,0,0,0,2.732,0A8.928,8.928,0,0,0,11.8.536a8.826,8.826,0,0,0-9.76,2.609,8.89,8.89,0,0,0-.825,10.136,8.9,8.9,0,0,0,9.244,4.136,8.885,8.885,0,0,0,7.108-8.628,1.367,1.367,0,0,0-2.732,0" transform="translate(0 -0.001)" fill="#eae8d6"/>
      <path id="Path_123" data-name="Path 123" d="M3.962,405.7V20.133c0-5.206.092-10.425,0-15.632-.006-.228,0-.455,0-.683a1.367,1.367,0,0,0-2.732,0V389.381c0,5.206-.092,10.425,0,15.631.006.228,0,.455,0,.683a1.367,1.367,0,0,0,2.732,0" transform="translate(6.125 12.889)" fill="#eae8d6"/>
    </g>
  </g>
</svg>
