<svg xmlns="http://www.w3.org/2000/svg" xmlns:xlink="http://www.w3.org/1999/xlink" width="213.892" height="413.87" viewBox="0 0 213.892 413.87">
  <defs>
    <clipPath id="clip-path">
      <rect id="Rectangle_878" data-name="Rectangle 878" width="213.892" height="413.87" fill="none"/>
    </clipPath>
  </defs>
  <g id="Group_62" data-name="Group 62" transform="translate(0 0)">
    <g id="Group_61" data-name="Group 61" transform="translate(0 0)" clip-path="url(#clip-path)">
      <path id="Path_147" data-name="Path 147" d="M85.737,107.619a44.571,44.571,0,0,1,5-6.709,102.23,102.23,0,0,1,12.727-12.585,59.906,59.906,0,0,1,6.869-5.034,1.448,1.448,0,0,1,.8-.3,15.1,15.1,0,0,1,4.609-2.3c1.817-.6,2.579.027,2.357,1.923a8.6,8.6,0,0,1-.452,1.826,15.249,15.249,0,0,1-1.6,3.235,2.546,2.546,0,0,0,1.586,1.781c.629-1.25,1.267-2.49,1.888-3.749a9.325,9.325,0,0,0,.9-3.04,4.67,4.67,0,0,0-1.223-3.7,6.536,6.536,0,0,0-2.623-1.781,92.7,92.7,0,0,1-12.053-7.081Q84.164,56.96,63.785,43.852a6.4,6.4,0,0,1-2.313-2.614c-1.755-3.43-3.643-6.8-5.486-10.183Q48.9,18.039,41.832,5.016a3.829,3.829,0,0,1-.815-2.411.673.673,0,0,0-.541-.762C38.818,1.515,37.445.425,35.752.15a15.25,15.25,0,0,0-7.533.931,34.451,34.451,0,0,0-8.65,4.626A53.664,53.664,0,0,0,4.174,22.626,29.481,29.481,0,0,0,.1,34.147a26.661,26.661,0,0,0,.284,6.346A4.55,4.55,0,0,0,1.462,42.5a1.077,1.077,0,0,0,1.117.541,2.674,2.674,0,0,1,2.021.594Q18.359,51.27,32.1,58.927c2.783,1.551,5.548,3.137,8.349,4.671a2.785,2.785,0,0,1,1.152,1.2,32.466,32.466,0,0,0,2.163,3.261q2.792,3.962,5.619,7.923c4.857,6.807,9.758,13.578,14.57,20.411,3.545,5.016,7.081,10.033,10.662,15.022,1.462,2.038,2.792,4.165,4.192,6.248.292.434.62.851.957,1.258a.662.662,0,0,0,.62.31c1.64-.39,3.315.239,4.963-.319a28.018,28.018,0,0,0,4.644-2c-.16-.585-.346-1.17-.479-1.755-.106-.452-.425-.408-.753-.39a12.529,12.529,0,0,1-4.245,1.773c-.505.106-1.2.425-1.471-.115-.381-.753-1.2-1.418-.771-2.482a26.9,26.9,0,0,1,3.465-6.319" transform="translate(0 0.002)" fill="#2e2e2f"/>
      <path id="Path_148" data-name="Path 148" d="M119.587,27.061c-1.852-.6-3.767-1.072-5.663-1.524q-1.542-.359-3.084-.691c-.576-.124-1.161-.239-1.746-.355-.292-.062-.585-.124-.877-.177-.08-.018-.5-.1-.275-.053l-.558-.106c-2.96-.549-5.938-1.01-8.934-1.4a181.118,181.118,0,0,0-23.495-1.489A178.579,178.579,0,0,0,45.717,23.72a171.776,171.776,0,0,0-33.093,8.987q-2.154.838-4.307,1.719a1.056,1.056,0,0,1-1.391-.443,1.038,1.038,0,0,1,.452-1.391A173.6,173.6,0,0,1,41.294,22.408a182.843,182.843,0,0,1,54.78-2.03A164.785,164.785,0,0,1,113.1,23.233a60.18,60.18,0,0,1,7.055,1.835l.089.027a1.038,1.038,0,0,1-.656,1.968" transform="translate(53.607 150.983)" fill="#2e2e2f"/>
      <path id="Path_149" data-name="Path 149" d="M27.645,43.282A13.349,13.349,0,0,1,27.5,45.87a85.074,85.074,0,0,1-.638,9,7.845,7.845,0,0,0,.08,3.075A7.145,7.145,0,0,1,27.1,61.1a6.747,6.747,0,0,0,.151,3c.062.23.222.541.133.691-.638,1.037.018,2.154-.257,3.2a1.444,1.444,0,0,0,.115.842,5.26,5.26,0,0,1,.106,2.57,2.22,2.22,0,0,0-.089.576,11.756,11.756,0,0,1-1.968,7.214A3.657,3.657,0,0,0,25,80.736c-.142,1.037-1.072,1.87-.718,3.013-1.028.523-.027,1.551-.479,2.083-.594.7-.195,1.516-.532,2.207a1.242,1.242,0,0,0,.089.984c.089.222.239.576.151.682-.718.807-.1,1.631-.106,2.446a2.946,2.946,0,0,1-.027,1.01c-.691,1.693-.363,3.545-.851,5.264-.23.815-.08,1.746-.807,2.42-.248.23-.115.638-.106.975a4.311,4.311,0,0,1-.753,3c-.16.186-.284.461-.142.665a2.174,2.174,0,0,1-.018,1.959c-.585,1.888-.877,3.864-1.578,5.7a13.933,13.933,0,0,1-3.572,5.681,14.234,14.234,0,0,0-2.189,3.208c-.417.682-.594,1.578-1.773,1.241-.381-.106-.922,1.374-.62,1.888a.766.766,0,0,1,.106.78,6.18,6.18,0,0,1-.753,1.533,6.765,6.765,0,0,0-1.8,2.871c-.124.549-.638.993.018,1.516.2.168.168.425.1.674a9.473,9.473,0,0,0-.186,6.177,7.352,7.352,0,0,1-.284,2.969c-.044.222-.337.443-.213.656.984,1.781.284,3.616.2,5.424v.292Q54,145.531,99.823,143a5.972,5.972,0,0,0-.922-3.731,1.82,1.82,0,0,1-.222-.975c-.018-.239.018-.612-.115-.691-1.232-.744-.993-2.18-1.516-3.253-.275-.576-1.046-.762-1.028-1.5-1.064-.549-1.028-1.737-1.48-2.632a12.2,12.2,0,0,0-1.631-2.366A6.58,6.58,0,0,1,91.1,123.17a.843.843,0,0,0-.195-.665,1.785,1.785,0,0,1-.443-1.338c-.009-.195.035-.461-.08-.567-.984-.975-.62-2.349-1.055-3.456-.585-1.5-.8-3.164-1.879-4.449-.549-.656-.505-1.516-.886-2.26-.656-1.258-1.586-2.3-2.313-3.483a3.8,3.8,0,0,1-.824-1.631,1.975,1.975,0,0,0-.594-.966c-1.179-1.2-1.932-2.739-3.191-3.882a2.332,2.332,0,0,1-.913-1.9.913.913,0,0,0-.346-.762,10.058,10.058,0,0,1-3.208-5.938,1.307,1.307,0,0,0-.284-.8,1.145,1.145,0,0,1-.106-1.578,1.22,1.22,0,0,0,.062-1.241,7.337,7.337,0,0,1-.168-2.712c.018-1.613.5-3.208-.062-4.857a11.928,11.928,0,0,1-.31-2.659,35.526,35.526,0,0,0-.487-3.855,36.849,36.849,0,0,1-.744-4.4A47.237,47.237,0,0,0,72,61.486a48.055,48.055,0,0,1-.9-5.539c-.292-1.87-.346-3.74-.576-5.6a21.122,21.122,0,0,0-.86-3.35,4,4,0,0,1-.23-1.276,19.857,19.857,0,0,0-.9-5.247,2,2,0,0,0-.434-.9,2.214,2.214,0,0,1-.549-1.6,8.022,8.022,0,0,0-.948-2.827,19.683,19.683,0,0,0-2.393-4.4,16.611,16.611,0,0,1-1.329-2.4c-.877-1.923-2.083-3.669-3.137-5.495a60.571,60.571,0,0,0-4.157-6.062,1.531,1.531,0,0,1-.3-.948,2.559,2.559,0,0,1-1.586-1.79,3.023,3.023,0,0,1-1.675-1.507,11.283,11.283,0,0,0-3.244-3.173,1.345,1.345,0,0,0-.789.31,57.246,57.246,0,0,0-6.877,5.034A102.229,102.229,0,0,0,28.381,27.294a43.327,43.327,0,0,0-5,6.7c.674,1.453,1.383,2.9,2.012,4.369.381.9,1.064,1.711,1.01,2.783.328-.027.647-.071.753.381.133.594.319,1.17.487,1.755" transform="translate(62.356 73.628)" fill="#eae8d6"/>
      <path id="Path_150" data-name="Path 150" d="M28.491,27.523a35.584,35.584,0,0,0-6.257,4.786,10.3,10.3,0,0,0-2.8,6.4,236.266,236.266,0,0,1-2.951,23.92c-.6,3.332-.762,6.745-1.134,10.112-.736,6.753-1.445,13.507-2.233,20.251-.23,1.932-.514,3.855-.922,5.77-.532,2.473-.186,5.025-.541,7.516a113.709,113.709,0,0,0-1.161,16.547c.018,4.529-.044,9.049-.425,13.56-.514,6.009-1.232,12-1.453,18.036-.168,4.644-.133,9.306-.425,13.95a138.746,138.746,0,0,1-2.118,16.2,114.817,114.817,0,0,0-1.861,18.913c-.044,3.687.257,7.383.337,11.069.044,1.7-.044,3.4-.133,5.1a48.789,48.789,0,0,0,.292,5.805,14.156,14.156,0,0,0,2.88,7.241,30.945,30.945,0,0,0,15.589,11.592c8.756,3,17.513,6,26.455,8.437a118.683,118.683,0,0,0,14.712,2.934c4.768.665,9.51,1.524,14.287,2.118a80.188,80.188,0,0,0,10.724.674c5.194-.053,10.387-.142,15.581-.337a91.825,91.825,0,0,0,22.414-3.288c4.086-1.2,8.3-1.843,12.408-2.987a43.833,43.833,0,0,0,11.238-4.679c3.589-2.189,7.321-4.165,10.91-6.355a39.068,39.068,0,0,0,8.358-7.25,63.848,63.848,0,0,0,7.462-10.387,22.936,22.936,0,0,0,2.659-16.369c-2.544-13.622-3.962-27.395-5.566-41.132-1.781-15.359-3.554-30.709-5.832-46-2.056-13.817-4.281-27.607-6.922-41.318-2.074-10.706-4.4-21.359-6.594-32.039a70.413,70.413,0,0,1-1.321-7.79,46.172,46.172,0,0,0-1.861-8.375c-.461-1.631-1.861-3.058-3.146-4.369a22.266,22.266,0,0,0-8.118-4.972c-.931-.355-1.888-.674-2.836-1.01-1.055-.2-1.055.7-1.223,1.285s.47.567.824.771a7.871,7.871,0,0,0,1.861.842c4.05,1.117,6.479,4.174,8.694,7.462a4.826,4.826,0,0,1,.47,1.019,3.082,3.082,0,0,1-.86,3.581,14.887,14.887,0,0,1-3.749,2.5,41.55,41.55,0,0,1-8.925,2.907c-6.6,1.507-13.3,2.526-19.968,3.722-7.276,1.3-14.6,2.42-21.971,3.013a228.8,228.8,0,0,1-24.656.195c-2.827-.08-5.637-.461-8.455-.656-5.459-.39-10.883-.9-16.3-1.684a100.227,100.227,0,0,1-13.418-2.809A25.923,25.923,0,0,1,23.412,39c-1.338-.869-1.56-1.755-.78-3.155a5.176,5.176,0,0,1,.877-1.214c2.021-2.012,3.891-4.219,6.709-5.22.815-.292.922-.948.319-1.542a1.709,1.709,0,0,0-2.047-.346" transform="translate(33.043 155.413)" fill="#2e2e2f"/>
    </g>
  </g>
</svg>
