<svg xmlns="http://www.w3.org/2000/svg" width="12.704" height="12.706" viewBox="0 0 12.704 12.706">
  <g id="Group_117" data-name="Group 117" transform="translate(-1317.397 -7776.219)">
    <path id="Path_352" data-name="Path 352" d="M1.844,9.289a5.281,5.281,0,1,1,7.445-.572,5.28,5.28,0,0,1-7.445.572" transform="matrix(0.999, -0.035, 0.035, 0.999, 1318.299, 7777.484)" fill="#2e3047"/>
    <path id="Path_351" data-name="Path 351" d="M3.326,9.532A4.461,4.461,0,0,1,2.02,4.588,4.455,4.455,0,0,1,6.171,1.739,4.462,4.462,0,0,1,10.308,4.7,4.406,4.406,0,0,1,3.326,9.532a.9.9,0,0,0-1.242,0,.89.89,0,0,0,0,1.242,6.255,6.255,0,0,0,7.028.765A6.224,6.224,0,0,0,12.2,5.076,6.167,6.167,0,0,0,7.269.09,6.236,6.236,0,0,0,.785,3.1a6.224,6.224,0,0,0,1.3,7.67.9.9,0,0,0,1.242,0,.886.886,0,0,0,0-1.242" transform="matrix(0.999, -0.035, 0.035, 0.999, 1317.397, 7776.648)" fill="#007fa7"/>
  </g>
</svg>
