<svg xmlns="http://www.w3.org/2000/svg" width="30.374" height="30.374" viewBox="0 0 30.374 30.374">
  <path id="af2da8f3726c5aa836b9ea2eeab70e0c" d="M25.3,7.255h0a1.822,1.822,0,1,0,1.822,1.822A1.822,1.822,0,0,0,25.3,7.255Zm6.986,3.675a11.527,11.527,0,0,0-.7-3.69,7.5,7.5,0,0,0-1.762-2.688A7.138,7.138,0,0,0,27.135,2.8a11.087,11.087,0,0,0-3.69-.714C21.834,2,21.318,2,17.187,2s-4.647,0-6.257.091A11.087,11.087,0,0,0,7.24,2.8,7.259,7.259,0,0,0,4.551,4.551,7.138,7.138,0,0,0,2.8,7.24a11.086,11.086,0,0,0-.714,3.69C2,12.54,2,13.056,2,17.187s0,4.647.091,6.257a11.087,11.087,0,0,0,.714,3.69,7.138,7.138,0,0,0,1.747,2.688A7.259,7.259,0,0,0,7.24,31.569a11.087,11.087,0,0,0,3.69.714c1.61.091,2.126.091,6.257.091s4.647,0,6.257-.091a11.087,11.087,0,0,0,3.69-.714,7.138,7.138,0,0,0,2.688-1.747,7.366,7.366,0,0,0,1.762-2.688,11.527,11.527,0,0,0,.7-3.69c0-1.61.091-2.126.091-6.257S32.374,12.54,32.283,10.93ZM29.549,23.262a8.52,8.52,0,0,1-.516,2.825,4.647,4.647,0,0,1-1.139,1.747,4.845,4.845,0,0,1-1.747,1.139,8.52,8.52,0,0,1-2.825.516c-1.519.076-2.081.091-6.075.091s-4.556,0-6.075-.091a8.7,8.7,0,0,1-2.946-.456,4.966,4.966,0,0,1-1.671-1.139,4.556,4.556,0,0,1-1.124-1.747,8.414,8.414,0,0,1-.607-2.886c0-1.519-.091-2.081-.091-6.075s0-4.556.091-6.075a8.414,8.414,0,0,1,.532-2.886,4.556,4.556,0,0,1,1.2-1.671A4.769,4.769,0,0,1,8.227,5.341a8.7,8.7,0,0,1,2.886-.516c1.519,0,2.081-.091,6.075-.091s4.556,0,6.075.091a8.52,8.52,0,0,1,2.825.516,4.647,4.647,0,0,1,1.807,1.215,4.647,4.647,0,0,1,1.139,1.671,8.52,8.52,0,0,1,.516,2.886c.076,1.519.091,2.081.091,6.075S29.625,21.743,29.549,23.262ZM17.187,9.4a7.776,7.776,0,1,0,5.523,2.272A7.791,7.791,0,0,0,17.187,9.4Zm0,12.848a5.057,5.057,0,1,1,5.057-5.057,5.057,5.057,0,0,1-5.057,5.057Z" transform="translate(-2 -2)" fill="#eae8d6"/>
</svg>
