<svg xmlns="http://www.w3.org/2000/svg" width="31.785" height="30.374" viewBox="0 0 31.785 30.374">
  <path id="b5783c601e16032733df8073caacab72" d="M0,8.528A3.3,3.3,0,0,1,1.074,6,3.939,3.939,0,0,1,3.866,5,3.822,3.822,0,0,1,6.6,5.982,3.461,3.461,0,0,1,7.67,8.62a3.231,3.231,0,0,1-1.043,2.454A3.947,3.947,0,0,1,3.8,12.087H3.774a3.755,3.755,0,0,1-2.731-1.012A3.4,3.4,0,0,1,0,8.528ZM.4,35.374V14.879H7.21V35.374Zm10.585,0h6.811V23.93a3.994,3.994,0,0,1,1.549-3.421,3.333,3.333,0,0,1,2.194-.721q3.436,0,3.436,4.633V35.374h6.811V23.623q0-4.541-2.148-6.888a7.326,7.326,0,0,0-5.676-2.347,6.962,6.962,0,0,0-6.167,3.406v.061h-.031l.031-.061V14.879H10.984q.061.982.061,6.105T10.984,35.374Z" transform="translate(0 -5)" fill="#eae8d6"/>
</svg>
